<svg id="Capa_1" enable-background="new 0 0 512 512" height="512" viewBox="0 0 512 512" width="512" xmlns="http://www.w3.org/2000/svg"><g><g><path d="m116.297 403.201h279.406v46.741h-279.406z" fill="#d97c40"/><g fill="#e3986d"><path d="m115.689 334.188-42.866 149.414c-3.004 10.468 4.855 20.898 15.745 20.898h21.849c11.751 0 22.081-7.783 25.322-19.079l43.388-151.233z"/><path d="m396.311 334.188 42.866 149.414c3.003 10.468-4.855 20.898-15.746 20.898h-21.849c-11.751 0-22.081-7.783-25.322-19.079l-43.388-151.233z"/><path d="m279.273 7.5h-46.545c-13.047 0-23.624 10.577-23.624 23.624v50.365h93.793v-50.365c0-13.047-10.577-23.624-23.624-23.624z"/></g><path d="m302.897 31.124c0-1.121-.084-2.222-.235-3.302h-93.324c-.151 1.08-.235 2.181-.235 3.302v50.365h93.793v-50.365z" fill="#d97c40"/><path d="m370.682 57.822h-229.364c-25.83 0-46.77 20.94-46.77 46.77v214.219h322.904v-214.219c0-25.83-20.94-46.77-46.77-46.77z" fill="#ececec"/><path d="m171.318 57.822h-30c-25.83 0-46.77 20.939-46.77 46.77v214.219h30v-214.219c0-25.83 20.94-46.77 46.77-46.77z" fill="#dededc"/><g><g><g><ellipse cx="163.938" cy="201.65" fill="#ffaacb" rx="27.051" ry="33.969" transform="matrix(.002 -1 1 .002 -38.072 365.146)"/></g><g><ellipse cx="348.062" cy="202.053" fill="#ffaacb" rx="27.051" ry="33.969" transform="matrix(.002 -1 1 .002 145.248 549.672)"/></g></g></g><path d="m396.311 334.188h-63.439l12.172 42.425h63.439z" fill="#d97c40"/><path d="m103.517 376.613h63.439l12.172-42.425h-63.439z" fill="#d97c40"/><path d="m417.452 291.01h-322.904c-11.335 0-20.523 9.188-20.523 20.523v14.557c0 11.335 9.188 20.523 20.523 20.523h322.904c11.335 0 20.523-9.188 20.523-20.523v-14.557c0-11.335-9.189-20.523-20.523-20.523z" fill="#e3986d"/></g><g><path d="m176.562 167.697v13.804c0 4.142 3.358 7.5 7.5 7.5s7.5-3.358 7.5-7.5v-13.804c0-4.143-3.358-7.5-7.5-7.5s-7.5 3.358-7.5 7.5z"/><path d="m320.24 167.697v13.804c0 4.142 3.358 7.5 7.5 7.5s7.5-3.358 7.5-7.5v-13.804c0-4.143-3.358-7.5-7.5-7.5s-7.5 3.358-7.5 7.5z"/><path d="m281.869 189.732c0 5.034-4.095 9.129-9.129 9.129s-9.129-4.096-9.129-9.129c0-4.142-3.358-7.5-7.5-7.5s-7.5 3.358-7.5 7.5c0 5.034-4.095 9.129-9.129 9.129s-9.129-4.096-9.129-9.129c0-4.142-3.358-7.5-7.5-7.5s-7.5 3.358-7.5 7.5c0 13.305 10.824 24.129 24.129 24.129 6.442 0 12.298-2.542 16.629-6.67 4.332 4.128 10.188 6.67 16.629 6.67 13.305 0 24.129-10.825 24.129-24.129 0-4.142-3.358-7.5-7.5-7.5s-7.5 3.358-7.5 7.5z"/><path d="m90.939 447.65c1.143-3.981-1.159-8.135-5.141-9.277-3.98-1.143-8.135 1.159-9.277 5.141l-10.908 38.02c-4.379 15.267 7.063 30.466 22.955 30.466h21.849c15.014 0 28.391-10.079 32.531-24.51l8.62-30.047h208.862l8.62 30.047c4.14 14.431 17.518 24.51 32.531 24.51h21.85c15.884 0 27.337-15.189 22.955-30.467l-36.556-127.42h7.622c15.452 0 28.023-12.571 28.023-28.023v-14.557c0-12.854-8.703-23.708-20.523-26.996v-109.636c0-4.142-3.358-7.5-7.5-7.5s-7.5 3.358-7.5 7.5v108.609h-307.904v-178.918c0-21.654 17.616-39.27 39.27-39.27h229.364c21.653 0 39.27 17.616 39.27 39.27v40.309c0 4.142 3.358 7.5 7.5 7.5s7.5-3.358 7.5-7.5v-40.309c0-29.924-24.345-54.27-54.27-54.27h-60.286v-19.198c.001-17.162-13.962-31.124-31.123-31.124h-46.545c-17.162 0-31.124 13.962-31.124 31.124v19.198h-60.286c-29.925 0-54.27 24.346-54.27 54.27v179.945c-11.82 3.289-20.522 14.141-20.522 26.995v14.557c0 15.452 12.571 28.023 28.023 28.023h7.621l-17.43 60.754c-1.143 3.981 1.159 8.135 5.141 9.278 3.984 1.142 8.135-1.16 9.277-5.141l18.617-64.891h47.834l-37.078 129.24c-2.306 8.035-9.754 13.647-18.113 13.647h-21.85c-5.907 0-10.167-5.649-8.537-11.33zm125.665-416.526c0-8.891 7.233-16.124 16.124-16.124h46.545c8.891 0 16.124 7.233 16.124 16.124v19.198h-78.793zm-60.731 411.318 9.106-31.741h182.042l9.106 31.741zm267.559 54.558h-21.85c-8.359 0-15.807-5.612-18.113-13.647l-37.078-129.24h47.834l37.743 131.557c1.629 5.678-2.626 11.33-8.536 11.33zm-341.906-170.91v-14.557c0-7.181 5.842-13.023 13.023-13.023h322.903c7.181 0 13.023 5.842 13.023 13.023v14.557c0 7.181-5.842 13.023-13.023 13.023h-322.904c-7.18 0-13.022-5.842-13.022-13.023zm249.261 28.023 11.931 41.588h-173.436l11.931-41.588z"/></g></g></svg>